<svg xmlns="http://www.w3.org/2000/svg" width="19.972" height="16.377" viewBox="0 0 19.972 16.377"><g transform="translate(1 1)"><path d="M4.8,5H19.175a2.8,2.8,0,0,1,2.8,2.8V18.58a2.8,2.8,0,0,1-2.8,2.8H4.8A2.8,2.8,0,0,1,2,18.58V7.8A2.8,2.8,0,0,1,4.8,5ZM19.175,19.377a.8.8,0,0,0,.8-.8V7.8a.8.8,0,0,0-.8-.8H4.8a.8.8,0,0,0-.8.8V18.58a.8.8,0,0,0,.8.8Z" transform="translate(-3 -6)" fill="#fff"/><path d="M11.986,16.29a1,1,0,0,1-.573-.181L2.427,9.819A1,1,0,0,1,3.573,8.181l8.412,5.889L20.4,8.181a1,1,0,0,1,1.147,1.638l-8.986,6.29A1,1,0,0,1,11.986,16.29Z" transform="translate(-3 -7.203)" fill="#fff"/></g></svg>