<svg width="216" height="18" viewBox="0 0 216 18" fill="none" xmlns="http://www.w3.org/2000/svg">
<path d="M10.304 0.439999C10.304 0.279999 10.384 0.199999 10.544 0.199999H12.368C12.528 0.199999 12.608 0.279999 12.608 0.439999V16.76C12.608 16.92 12.528 17 12.368 17H10.544C10.384 17 10.304 16.92 10.304 16.76V9.632C10.304 9.568 10.272 9.536 10.208 9.536H3.368C3.304 9.536 3.272 9.568 3.272 9.632V16.76C3.272 16.92 3.192 17 3.032 17H1.208C1.048 17 0.968 16.92 0.968 16.76V0.439999C0.968 0.279999 1.048 0.199999 1.208 0.199999H3.032C3.192 0.199999 3.272 0.279999 3.272 0.439999V7.448C3.272 7.512 3.304 7.544 3.368 7.544H10.208C10.272 7.544 10.304 7.512 10.304 7.448V0.439999ZM22.8687 17.216C21.7007 17.216 20.6687 16.976 19.7727 16.496C18.8767 16.016 18.1807 15.344 17.6847 14.48C17.1887 13.6 16.9407 12.592 16.9407 11.456V5.744C16.9407 4.608 17.1887 3.608 17.6847 2.744C18.1807 1.88 18.8767 1.208 19.7727 0.727999C20.6687 0.248 21.7007 0.0079999 22.8687 0.0079999C24.0527 0.0079999 25.0927 0.248 25.9887 0.727999C26.8847 1.208 27.5807 1.88 28.0767 2.744C28.5727 3.608 28.8207 4.608 28.8207 5.744V11.456C28.8207 12.592 28.5727 13.6 28.0767 14.48C27.5807 15.344 26.8847 16.016 25.9887 16.496C25.0927 16.976 24.0527 17.216 22.8687 17.216ZM22.8687 15.224C23.9567 15.224 24.8367 14.888 25.5087 14.216C26.1807 13.544 26.5167 12.656 26.5167 11.552V5.72C26.5167 4.6 26.1807 3.704 25.5087 3.032C24.8367 2.344 23.9567 2 22.8687 2C21.7807 2 20.9007 2.344 20.2287 3.032C19.5727 3.704 19.2447 4.6 19.2447 5.72V11.552C19.2447 12.656 19.5727 13.544 20.2287 14.216C20.9007 14.888 21.7807 15.224 22.8687 15.224ZM44.1584 0.344C44.2384 0.247999 44.3344 0.199999 44.4464 0.199999H46.2704C46.4304 0.199999 46.5104 0.279999 46.5104 0.439999V16.76C46.5104 16.92 46.4304 17 46.2704 17H44.4464C44.2864 17 44.2064 16.92 44.2064 16.76V4.472C44.2064 4.424 44.1904 4.392 44.1584 4.376C44.1264 4.36 44.1024 4.376 44.0864 4.424L40.6544 9.656C40.5904 9.752 40.4944 9.8 40.3664 9.8H39.4544C39.3424 9.8 39.2464 9.752 39.1664 9.656L35.7104 4.472C35.6944 4.424 35.6704 4.408 35.6384 4.424C35.6064 4.44 35.5904 4.472 35.5904 4.52V16.76C35.5904 16.92 35.5104 17 35.3504 17H33.5264C33.3664 17 33.2864 16.92 33.2864 16.76V0.439999C33.2864 0.279999 33.3664 0.199999 33.5264 0.199999H35.3504C35.4784 0.199999 35.5744 0.247999 35.6384 0.344L39.8384 6.632C39.8544 6.648 39.8784 6.656 39.9104 6.656C39.9424 6.656 39.9664 6.648 39.9824 6.632L44.1584 0.344ZM62.5627 1.952C62.5627 2.112 62.4827 2.192 62.3227 2.192H53.8027C53.7387 2.192 53.7067 2.224 53.7067 2.288V7.448C53.7067 7.512 53.7387 7.544 53.8027 7.544H59.6587C59.8187 7.544 59.8987 7.624 59.8987 7.784V9.296C59.8987 9.456 59.8187 9.536 59.6587 9.536H53.8027C53.7387 9.536 53.7067 9.568 53.7067 9.632V14.912C53.7067 14.976 53.7387 15.008 53.8027 15.008H62.3227C62.4827 15.008 62.5627 15.088 62.5627 15.248V16.76C62.5627 16.92 62.4827 17 62.3227 17H51.6427C51.4827 17 51.4027 16.92 51.4027 16.76V0.439999C51.4027 0.279999 51.4827 0.199999 51.6427 0.199999H62.3227C62.4827 0.199999 62.5627 0.279999 62.5627 0.439999V1.952ZM77.8711 17.216C76.7191 17.216 75.6951 16.992 74.7991 16.544C73.9191 16.08 73.2311 15.432 72.7351 14.6C72.2551 13.752 72.0151 12.784 72.0151 11.696V5.48C72.0151 4.392 72.2551 3.44 72.7351 2.624C73.2311 1.792 73.9191 1.152 74.7991 0.704C75.6951 0.24 76.7191 0.0079999 77.8711 0.0079999C79.0231 0.0079999 80.0391 0.232 80.9191 0.68C81.7991 1.112 82.4791 1.728 82.9591 2.528C83.4551 3.328 83.7031 4.256 83.7031 5.312V5.336C83.7031 5.416 83.6791 5.48 83.6311 5.528C83.5831 5.576 83.5271 5.6 83.4631 5.6L81.6391 5.696C81.4791 5.696 81.3991 5.624 81.3991 5.48V5.408C81.3991 4.384 81.0791 3.56 80.4391 2.936C79.7991 2.312 78.9431 2 77.8711 2C76.7991 2 75.9351 2.312 75.2791 2.936C74.6391 3.56 74.3191 4.384 74.3191 5.408V11.792C74.3191 12.816 74.6391 13.64 75.2791 14.264C75.9351 14.888 76.7991 15.2 77.8711 15.2C78.9431 15.2 79.7991 14.888 80.4391 14.264C81.0791 13.64 81.3991 12.816 81.3991 11.792V11.744C81.3991 11.6 81.4791 11.528 81.6391 11.528L83.4631 11.624C83.6231 11.624 83.7031 11.704 83.7031 11.864C83.7031 12.92 83.4551 13.856 82.9591 14.672C82.4791 15.472 81.7991 16.096 80.9191 16.544C80.0391 16.992 79.0231 17.216 77.8711 17.216ZM93.4813 17.216C92.3133 17.216 91.2813 16.976 90.3853 16.496C89.4893 16.016 88.7933 15.344 88.2973 14.48C87.8013 13.6 87.5533 12.592 87.5533 11.456V5.744C87.5533 4.608 87.8013 3.608 88.2973 2.744C88.7933 1.88 89.4893 1.208 90.3853 0.727999C91.2813 0.248 92.3133 0.0079999 93.4813 0.0079999C94.6653 0.0079999 95.7053 0.248 96.6013 0.727999C97.4973 1.208 98.1933 1.88 98.6893 2.744C99.1853 3.608 99.4333 4.608 99.4333 5.744V11.456C99.4333 12.592 99.1853 13.6 98.6893 14.48C98.1933 15.344 97.4973 16.016 96.6013 16.496C95.7053 16.976 94.6653 17.216 93.4813 17.216ZM93.4813 15.224C94.5693 15.224 95.4493 14.888 96.1213 14.216C96.7933 13.544 97.1293 12.656 97.1293 11.552V5.72C97.1293 4.6 96.7933 3.704 96.1213 3.032C95.4493 2.344 94.5693 2 93.4813 2C92.3933 2 91.5133 2.344 90.8413 3.032C90.1853 3.704 89.8573 4.6 89.8573 5.72V11.552C89.8573 12.656 90.1853 13.544 90.8413 14.216C91.5133 14.888 92.3933 15.224 93.4813 15.224ZM113.787 0.439999C113.787 0.279999 113.867 0.199999 114.027 0.199999H115.851C116.011 0.199999 116.091 0.279999 116.091 0.439999V16.76C116.091 16.92 116.011 17 115.851 17H114.099C113.987 17 113.891 16.944 113.811 16.832L106.299 4.568C106.283 4.52 106.259 4.504 106.227 4.52C106.195 4.52 106.179 4.544 106.179 4.592L106.203 16.76C106.203 16.92 106.123 17 105.963 17H104.139C103.979 17 103.899 16.92 103.899 16.76V0.439999C103.899 0.279999 103.979 0.199999 104.139 0.199999H105.915C106.027 0.199999 106.123 0.255999 106.203 0.368L113.691 12.632C113.707 12.68 113.731 12.704 113.763 12.704C113.795 12.688 113.811 12.656 113.811 12.608L113.787 0.439999ZM126.191 17.192C124.959 17.192 123.887 17 122.975 16.616C122.079 16.232 121.383 15.688 120.887 14.984C120.407 14.28 120.167 13.456 120.167 12.512V11.816C120.167 11.656 120.247 11.576 120.407 11.576H122.159C122.319 11.576 122.399 11.656 122.399 11.816V12.392C122.399 13.208 122.751 13.88 123.455 14.408C124.159 14.936 125.127 15.2 126.359 15.2C127.463 15.2 128.295 14.968 128.855 14.504C129.415 14.04 129.695 13.432 129.695 12.68C129.695 12.184 129.551 11.76 129.263 11.408C128.975 11.056 128.551 10.736 127.991 10.448C127.447 10.144 126.647 9.784 125.591 9.368C124.423 8.92 123.495 8.512 122.807 8.144C122.135 7.776 121.575 7.296 121.127 6.704C120.679 6.096 120.455 5.336 120.455 4.424C120.455 3.048 120.943 1.968 121.919 1.184C122.911 0.4 124.247 0.0079999 125.927 0.0079999C127.111 0.0079999 128.151 0.208 129.047 0.607999C129.943 1.008 130.631 1.568 131.111 2.288C131.607 3.008 131.855 3.84 131.855 4.784V5.264C131.855 5.424 131.775 5.504 131.615 5.504H129.815C129.655 5.504 129.575 5.424 129.575 5.264V4.904C129.575 4.072 129.239 3.384 128.567 2.84C127.911 2.28 126.999 2 125.831 2C124.839 2 124.071 2.208 123.527 2.624C122.983 3.024 122.711 3.608 122.711 4.376C122.711 4.904 122.847 5.336 123.119 5.672C123.391 6.008 123.791 6.312 124.319 6.584C124.863 6.84 125.687 7.176 126.791 7.592C127.927 8.04 128.847 8.456 129.551 8.84C130.255 9.208 130.839 9.704 131.303 10.328C131.767 10.936 131.999 11.696 131.999 12.608C131.999 14.016 131.479 15.136 130.439 15.968C129.415 16.784 127.999 17.192 126.191 17.192ZM141.813 17.192C140.645 17.192 139.613 16.968 138.717 16.52C137.837 16.056 137.149 15.408 136.653 14.576C136.157 13.728 135.909 12.76 135.909 11.672V0.439999C135.909 0.279999 135.989 0.199999 136.149 0.199999H137.973C138.133 0.199999 138.213 0.279999 138.213 0.439999V11.72C138.213 12.76 138.541 13.6 139.197 14.24C139.869 14.88 140.741 15.2 141.813 15.2C142.885 15.2 143.749 14.88 144.405 14.24C145.061 13.6 145.389 12.76 145.389 11.72V0.439999C145.389 0.279999 145.469 0.199999 145.629 0.199999H147.453C147.613 0.199999 147.693 0.279999 147.693 0.439999V11.672C147.693 12.76 147.445 13.728 146.949 14.576C146.469 15.408 145.781 16.056 144.885 16.52C144.005 16.968 142.981 17.192 141.813 17.192ZM152.652 17C152.492 17 152.412 16.92 152.412 16.76V0.439999C152.412 0.279999 152.492 0.199999 152.652 0.199999H154.476C154.636 0.199999 154.716 0.279999 154.716 0.439999V14.912C154.716 14.976 154.748 15.008 154.812 15.008H163.092C163.252 15.008 163.332 15.088 163.332 15.248V16.76C163.332 16.92 163.252 17 163.092 17H152.652ZM175.63 0.199999C175.79 0.199999 175.87 0.279999 175.87 0.439999V1.976C175.87 2.136 175.79 2.216 175.63 2.216H171.022C170.958 2.216 170.926 2.248 170.926 2.312V16.76C170.926 16.92 170.846 17 170.686 17H168.862C168.702 17 168.622 16.92 168.622 16.76V2.312C168.622 2.248 168.59 2.216 168.526 2.216H164.134C163.974 2.216 163.894 2.136 163.894 1.976V0.439999C163.894 0.279999 163.974 0.199999 164.134 0.199999H175.63ZM179.931 17C179.771 17 179.691 16.92 179.691 16.76V0.439999C179.691 0.279999 179.771 0.199999 179.931 0.199999H181.755C181.915 0.199999 181.995 0.279999 181.995 0.439999V16.76C181.995 16.92 181.915 17 181.755 17H179.931ZM196.773 0.439999C196.773 0.279999 196.853 0.199999 197.013 0.199999H198.837C198.997 0.199999 199.077 0.279999 199.077 0.439999V16.76C199.077 16.92 198.997 17 198.837 17H197.085C196.973 17 196.877 16.944 196.797 16.832L189.285 4.568C189.269 4.52 189.245 4.504 189.213 4.52C189.181 4.52 189.165 4.544 189.165 4.592L189.189 16.76C189.189 16.92 189.109 17 188.949 17H187.125C186.965 17 186.885 16.92 186.885 16.76V0.439999C186.885 0.279999 186.965 0.199999 187.125 0.199999H188.901C189.013 0.199999 189.109 0.255999 189.189 0.368L196.677 12.632C196.693 12.68 196.717 12.704 196.749 12.704C196.781 12.688 196.797 12.656 196.797 12.608L196.773 0.439999ZM209.394 17.192C208.242 17.192 207.218 16.968 206.322 16.52C205.442 16.056 204.754 15.408 204.258 14.576C203.778 13.728 203.538 12.76 203.538 11.672V5.528C203.538 4.424 203.778 3.456 204.258 2.624C204.754 1.792 205.442 1.152 206.322 0.704C207.218 0.24 208.242 0.0079999 209.394 0.0079999C210.546 0.0079999 211.562 0.232 212.442 0.68C213.322 1.128 214.002 1.752 214.482 2.552C214.978 3.336 215.226 4.224 215.226 5.216V5.48C215.226 5.64 215.146 5.72 214.986 5.72H213.162C213.002 5.72 212.922 5.64 212.922 5.48V5.264C212.922 4.304 212.594 3.528 211.938 2.936C211.298 2.328 210.45 2.024 209.394 2.024C208.322 2.024 207.458 2.336 206.802 2.96C206.162 3.584 205.842 4.416 205.842 5.456V11.744C205.842 12.784 206.178 13.616 206.85 14.24C207.522 14.864 208.402 15.176 209.49 15.176C210.546 15.176 211.378 14.904 211.986 14.36C212.61 13.8 212.922 13.04 212.922 12.08V10.232C212.922 10.168 212.89 10.136 212.826 10.136H209.586C209.426 10.136 209.346 10.056 209.346 9.896V8.408C209.346 8.248 209.426 8.168 209.586 8.168H214.986C215.146 8.168 215.226 8.248 215.226 8.408V11.456C215.226 13.296 214.698 14.712 213.642 15.704C212.602 16.696 211.186 17.192 209.394 17.192Z" fill="#444444"/>
</svg>
