<svg width="80" height="80" viewBox="0 0 80 80" fill="none" xmlns="http://www.w3.org/2000/svg">
<g clip-path="url(#clip0_9_253)">
<path d="M78.5656 9.48547C77.1989 6.63453 74.9543 4.27 72.1784 2.61203C69.3996 0.955625 66.0809 0.0028125 62.5178 0C57.7734 0.0028125 53.4512 1.69469 50.2739 4.4975C48.6859 5.89969 47.382 7.58438 46.4739 9.48547C45.5637 11.3836 45.0526 13.4995 45.0526 15.7159C45.0512 18.54 45.8859 21.1972 47.3148 23.4602C48.5353 25.3952 50.1862 27.0503 52.1332 28.345L49.201 35.6694L51.3184 35.408C58.6335 34.4933 65.6357 31.7555 68.9615 30.3181C72.1212 29.1903 74.8484 27.2622 76.8117 24.7578C78.7878 22.2363 79.9886 19.1025 79.9864 15.7161C79.9884 13.4995 79.4746 11.3838 78.5656 9.48547ZM74.9756 22.9639C73.3317 25.0658 70.9607 26.7647 68.1537 27.7511L68.1154 27.7623L68.0773 27.7794C65.1995 29.0288 59.3782 31.2973 53.1903 32.3744L55.2878 27.1417L54.2581 26.5523C52.1804 25.365 50.4793 23.7481 49.3082 21.8923C48.1357 20.0308 47.4926 17.9417 47.4906 15.7156C47.4906 13.9672 47.8884 12.3064 48.6234 10.7686C49.7237 8.46609 51.6001 6.45203 54.0084 5.01453C56.4176 3.57719 59.3506 2.72344 62.5175 2.72484C66.7464 2.72344 70.5478 4.24281 73.2523 6.63297C74.6036 7.82734 75.6806 9.23375 76.4142 10.7686C77.1484 12.3064 77.5464 13.9672 77.5478 15.7156C77.5465 18.3788 76.6223 20.858 74.9756 22.9639Z" fill="#FFB347"/>
<path d="M55.63 13.9817C54.5825 13.9817 53.7339 14.9314 53.7339 16.0989C53.7339 17.2692 54.5826 18.2176 55.63 18.2176C56.6773 18.2176 57.5275 17.2692 57.5275 16.0989C57.5275 14.9314 56.6773 13.9817 55.63 13.9817Z" fill="#FFB347"/>
<path d="M62.9465 13.9817C61.8986 13.9817 61.0484 14.9314 61.0484 16.0989C61.0484 17.2692 61.8986 18.2176 62.9465 18.2176C63.994 18.2176 64.8434 17.2692 64.8434 16.0989C64.8434 14.9314 63.994 13.9817 62.9465 13.9817Z" fill="#FFB347"/>
<path d="M70.2612 13.9817C69.2137 13.9817 68.3643 14.9314 68.3643 16.0989C68.3643 17.2692 69.2137 18.2176 70.2612 18.2176C71.31 18.2176 72.1595 17.2692 72.1595 16.0989C72.1593 14.9314 71.31 13.9817 70.2612 13.9817Z" fill="#FFB347"/>
<path d="M34.5226 54.2277C32.5411 54.8864 30.4286 55.2566 28.2286 55.2566C26.0286 55.2566 23.9162 54.8864 21.9345 54.2277C7.54436 56.5894 0.0137329 67.1647 0.0137329 80H28.2286H56.4434C56.4434 67.1647 48.9134 56.5894 34.5226 54.2277Z" fill="#FFB347"/>
<path d="M28.2286 50.6812C36.758 50.6812 43.6717 43.7669 43.6717 35.2381V30.8564C43.6717 22.328 36.758 15.4133 28.2286 15.4133C19.6992 15.4133 12.7855 22.3278 12.7855 30.8564V35.2381C12.7855 43.7669 19.6994 50.6812 28.2286 50.6812Z" fill="#FFB347"/>
</g>
<defs>
<clipPath id="clip0_9_253">
<rect width="80" height="80" fill="white"/>
</clipPath>
</defs>
</svg>
