<svg width="80" height="80" viewBox="0 0 80 80" fill="none" xmlns="http://www.w3.org/2000/svg">
<path d="M64.2014 6.86234H47.1148C46.8398 3.09172 43.8403 0.0125 39.9991 0C36.1567 0.0125 33.1575 3.09172 32.882 6.86234H15.7987C12.2376 6.86234 9.32874 9.77375 9.32874 13.3311V18.3555C9.32874 19.2448 10.0553 19.9727 10.944 19.9727H11.05L14.7775 73.5478C15.0236 77.095 18.135 80 21.6961 80H58.3028C61.8589 80 64.9747 77.095 65.2225 73.5477L68.9469 19.9725H69.0528C69.9428 19.9725 70.6712 19.2447 70.6712 18.3553V13.3309C70.6712 9.77375 67.7592 6.86234 64.2014 6.86234ZM22.9506 49.9509C22.2762 48.8736 22.5878 47.3233 23.1947 46.265C23.5714 45.6041 25.2786 42.7355 25.2786 42.7355L22.4164 41.0452L30.4475 41.0275L34.4992 48.0513L31.5203 46.3306L27.8828 52.7337H27.8861C27.1992 53.9598 26.5861 55.08 26.5533 56.2834C24.9909 53.5712 23.0534 50.12 22.9506 49.9509ZM37.9694 60.0981C37.0019 60.0905 33.76 60.0678 32.9458 60.0828C29.2181 60.1484 28.2594 59.2428 27.8609 58.5541C27.7783 58.4077 27.6912 58.2587 27.604 58.1086C26.5444 56.2719 27.4533 54.6522 28.5256 52.7412L38.0162 52.8067L37.9694 60.0981ZM34.9255 40.3841L28.637 36.6956C29.1258 35.863 30.7664 33.0664 31.1605 32.355C32.9656 29.0928 34.2328 28.7156 35.0262 28.7156H35.5397C37.6614 28.7156 38.6094 30.3127 39.7314 32.1973L34.9255 40.3841ZM40.0551 31.6409L40.052 31.6472C39.3361 30.4386 38.6714 29.3488 37.6476 28.7181C40.7773 28.7206 44.7383 28.7686 44.9331 28.7636C46.2028 28.7206 47.3905 29.7639 48.0034 30.8197C48.3831 31.4731 50.0192 34.3897 50.0192 34.3897L52.9125 32.7548L48.9123 39.718H40.8037L43.7845 37.9973L40.0551 31.6409ZM52.2919 58.443C51.6928 59.5669 50.1984 60.0703 48.9767 60.0753C48.2186 60.0791 44.8783 60.0375 44.8783 60.0375L44.8442 63.3603L40.8145 56.4147L44.8694 49.3909V52.8322L52.2369 52.7791L52.2358 52.7766C53.6378 52.7587 54.9175 52.7298 55.9726 52.1584C54.4067 54.863 52.3853 58.2716 52.2919 58.443ZM57.288 49.888C57.2022 50.0367 57.1164 50.1855 57.0294 50.337C55.9678 52.1711 54.1109 52.1939 51.9198 52.2217L47.2336 43.9667L53.5712 40.3639C54.0494 41.2067 55.6506 44.0233 56.0676 44.7222C57.99 47.9162 57.6834 49.2016 57.288 49.888Z" fill="#FFB347"/>
</svg>
