<svg width="80" height="80" viewBox="0 0 80 80" fill="none" xmlns="http://www.w3.org/2000/svg">
<path d="M60.6919 34.8843V40.5388C60.6889 46.2926 58.47 51.4463 54.8248 55.2574C51.1736 59.0624 46.1252 61.4966 40.4008 61.7477C40.3511 61.7508 40.3061 61.7633 40.2581 61.7679H39.7419C39.6939 61.7632 39.6487 61.7508 39.5994 61.7477C33.875 61.4966 28.8266 59.0624 25.1752 55.2574C21.53 51.4463 19.3114 46.2926 19.3081 40.5388V34.8843H12.9573V40.5388C12.9544 47.9485 15.8458 54.7024 20.5889 59.6499C24.7411 63.9897 30.3367 66.9637 36.6253 67.8443V80.0001H43.373V67.8444C49.6634 66.9638 55.2591 63.9899 59.4111 59.6501C64.1541 54.7026 67.0456 47.9487 67.0425 40.539V34.8844L60.6919 34.8843Z" fill="#FFB347"/>
<path d="M40.5156 56.7755C40.342 56.7755 40.173 56.7553 39.9992 56.7505C39.8272 56.7552 39.6583 56.7755 39.4845 56.7755H40.5156Z" fill="#FFB347"/>
<path d="M34.768 40.5186H24.1053C24.1922 49.3361 31.2281 56.4761 39.9992 56.7505C48.7719 56.4761 55.808 49.3361 55.8948 40.5186H45.232V37.4705H55.9023V31.7461H45.232V28.698H55.9023V22.9734H45.232V19.9253H55.9023V14.2008H45.232V11.1525H55.8497C55.3197 4.90562 50.0914 0 43.7081 0H36.2922C29.9089 0 24.6806 4.90562 24.1503 11.1525H34.768V14.2006H24.0977V19.925H34.768V22.9731H24.0977V28.6975H34.768V31.7456H24.0977V37.47H34.768V40.5186Z" fill="#FFB347"/>
</svg>
