<svg width="80" height="80" viewBox="0 0 80 80" fill="none" xmlns="http://www.w3.org/2000/svg">
<g clip-path="url(#clip0_9_281)">
<path d="M23.0578 50.0294C23.0456 49.9049 23.0066 49.7902 23.0066 49.6657V48.5988C23.0066 48.091 23.0895 47.5905 23.2556 47.1144C23.2556 47.1144 25.9144 43.5549 27.1717 39.3727C25.7947 36.4674 24.5447 32.8518 24.5447 29.2677C24.5447 28.4352 24.6058 27.6296 24.6912 26.836C22.8969 24.9561 20.4725 23.8916 17.7942 23.8916C12.2644 23.8916 7.77718 28.4033 7.77718 35.415C7.77718 41.0254 12.3427 47.1143 12.3427 47.1143C12.5037 47.5904 12.5869 48.0908 12.5869 48.5986V49.6655C12.5869 50.9961 11.8105 52.2071 10.5995 52.7613L3.35093 55.7227C1.66625 56.4991 0.467497 58.0469 0.133122 59.8682L0.00859036 61.4624C-0.0548471 62.2925 0.228278 63.1104 0.794684 63.7183C1.35859 64.3311 2.15218 64.6754 2.98468 64.6754H14.8328L15.3186 58.4327L15.3503 58.2643C15.9436 54.9903 18.1067 52.2071 21.1291 50.8155L23.0578 50.0294Z" fill="#FFB347"/>
<path d="M79.8669 59.8682C79.5348 58.0469 78.3361 56.4989 76.6516 55.7227L69.3981 52.7613C68.1872 52.2071 67.4156 50.9961 67.4156 49.6655V48.5986C67.4156 48.0908 67.4963 47.5904 67.6622 47.1143C67.6622 47.1143 72.2252 41.0254 72.2252 35.415C72.2252 28.4033 67.7403 23.8916 62.2008 23.8916C59.5275 23.8916 57.1031 24.9561 55.3038 26.8408C55.3917 27.6319 55.4527 28.435 55.4527 29.2675C55.4527 32.8491 54.2052 36.4649 52.8306 39.37C54.0855 43.5522 56.7491 47.1143 56.7491 47.1143C56.9102 47.5904 56.9956 48.0908 56.9956 48.5986V49.6655C56.9956 49.79 56.9541 49.9047 56.9419 50.0293L58.7388 50.7618C61.8881 52.2022 64.0513 54.9854 64.6519 58.2593L64.6813 58.4302L65.1647 64.6754H77.0177C77.8502 64.6754 78.6436 64.3311 79.2052 63.7183C79.7716 63.1104 80.0548 62.2925 79.9913 61.4624L79.8669 59.8682Z" fill="#FFB347"/>
<path d="M57.4792 53.8452L48.7048 50.2588C47.24 49.5849 46.305 48.12 46.305 46.5136V45.2197C46.305 44.6094 46.4027 44.0014 46.6053 43.4228C46.6053 43.4228 52.123 36.0595 52.123 29.2675C52.123 20.7811 46.6958 15.3247 39.9989 15.3247C33.3045 15.3247 27.8748 20.7813 27.8748 29.2675C27.8748 36.0595 33.3973 43.4228 33.3973 43.4228C33.5952 44.0014 33.6977 44.6094 33.6977 45.2197V46.5136C33.6977 48.12 32.7553 49.5849 31.2928 50.2588L22.5184 53.8452C20.4798 54.7802 19.0272 56.6552 18.6269 58.8622L18.1752 64.6752H39.9989H61.8227L61.3759 58.8622C60.9705 56.6553 59.5178 54.7803 57.4792 53.8452Z" fill="#FFB347"/>
</g>
<defs>
<clipPath id="clip0_9_281">
<rect width="80" height="80" fill="white"/>
</clipPath>
</defs>
</svg>
