<svg width="80" height="80" viewBox="0 0 80 80" fill="none" xmlns="http://www.w3.org/2000/svg">
<path d="M79.7564 50.4522L75.1064 30.6772C72.7513 21.8878 64.7866 15.7767 55.6867 15.7767H24.3131C15.2133 15.7767 7.24875 21.8877 4.89359 30.6772L0.243592 50.4522C-0.946721 56.1245 2.32797 61.7841 7.8414 63.5774L8.11328 63.6645C13.2161 65.3258 18.7833 63.1849 21.4616 58.5347L25.5075 52.552C26.5234 50.7883 28.4041 49.7005 30.4372 49.7005H49.5631C51.5962 49.7005 53.4769 50.7883 54.4927 52.552L58.5386 58.5347C61.217 63.1849 66.7853 65.3258 71.8883 63.6645L72.1589 63.5774C77.6719 61.7841 80.9469 56.1245 79.7564 50.4522ZM29.8509 37.2002H23.337V43.7152H17.6659V37.2002H11.152V31.5316H17.6659V25.0191H23.337V31.5316H29.8509V37.2002ZM58.5512 23.6619C60.5241 23.6619 62.1211 25.2589 62.1211 27.2319C62.1211 29.2022 60.5241 30.7992 58.5512 30.7992C56.5809 30.7992 54.9839 29.2022 54.9839 27.2319C54.9839 25.2588 56.5809 23.6619 58.5512 23.6619ZM51.4139 37.9377C49.4436 37.9377 47.8453 36.3392 47.8453 34.3664C47.8453 32.3974 49.4436 30.7991 51.4139 30.7991C53.3855 30.7991 54.9825 32.3974 54.9825 34.3664C54.9827 36.3394 53.3856 37.9377 51.4139 37.9377ZM58.5512 45.0736C56.5809 45.0736 54.9839 43.4766 54.9839 41.5063C54.9839 39.5333 56.5809 37.9363 58.5512 37.9363C60.5241 37.9363 62.1211 39.5333 62.1211 41.5063C62.1211 43.4766 60.5241 45.0736 58.5512 45.0736ZM65.6884 37.9377C63.7181 37.9377 62.1209 36.3392 62.1209 34.3664C62.1209 32.3974 63.7181 30.7991 65.6884 30.7991C67.66 30.7991 69.2583 32.3974 69.2583 34.3664C69.2583 36.3394 67.66 37.9377 65.6884 37.9377Z" fill="#FFB347"/>
</svg>
