<svg width="80" height="80" viewBox="0 0 80 80" fill="none" xmlns="http://www.w3.org/2000/svg">
<path d="M29.0625 22.5L21.2794 11.25L29.0625 0H18.3398L10.5567 11.25L18.3398 22.5H29.0625Z" fill="#FFB347"/>
<path d="M48.2642 22.5L40.4834 11.25L48.2642 0H37.5391L29.7559 11.25L37.5391 22.5H48.2642Z" fill="#FFB347"/>
<path d="M2.08016 11.25L9.86328 0H6.25C2.79781 0 0 2.79781 0 6.25V22.5H9.86328L2.08016 11.25Z" fill="#FFB347"/>
<path d="M75.7056 0.341858L68.1592 11.25L75.9425 22.5H80V6.24998C80 3.48639 78.1934 1.16701 75.7056 0.341858Z" fill="#FFB347"/>
<path d="M67.4658 22.5L59.6827 11.25L67.4658 0H56.7431L48.96 11.25L56.7431 22.5H67.4658Z" fill="#FFB347"/>
<path d="M0 73.75C0 77.2022 2.79781 80 6.25 80H73.75C77.2022 80 80 77.2022 80 73.75V27.5H0V73.75ZM33.5156 54.3262V44.8389C33.5156 44.7022 33.5889 44.5777 33.7013 44.5117C33.8184 44.4458 33.9625 44.4483 34.0772 44.5166L49.9756 54.0063C50.088 54.0722 50.1562 54.1942 50.1562 54.3261C50.1562 54.458 50.0878 54.58 49.9756 54.6434L34.0772 64.1356C33.9625 64.2041 33.8184 64.2064 33.7013 64.1405C33.5889 64.072 33.5156 63.95 33.5156 63.8133V54.3262Z" fill="#FFB347"/>
</svg>
