<svg id="point02.svg" xmlns="http://www.w3.org/2000/svg" width="125" height="125" viewBox="0 0 125 125">
  <defs>
    <style>
      .cls-1 {
        fill: #f4c2c2;
      }

      .cls-2 {
        fill: #fff;
        fill-rule: evenodd;
      }
    </style>
  </defs>
  <circle id="楕円形_4_コピー" data-name="楕円形 4 コピー" class="cls-1" cx="62.5" cy="62.5" r="62.5"/>
  <path id="_2" data-name="2" class="cls-2" d="M310.1,8801.41a38.073,38.073,0,0,0,4.086-1.77q2.235-1.125,4.587-2.58a29.624,29.624,0,0,0,4.356-3.32,21.325,21.325,0,0,0,5.126-7.05,19.513,19.513,0,0,0,1.658-7.83,9.285,9.285,0,0,0-2-6.4,7.263,7.263,0,0,0-5.7-2.23,9.727,9.727,0,0,0-5.667,1.39,4.239,4.239,0,0,0-1.965,3.62,6.475,6.475,0,0,0,.462,2.5,5.59,5.59,0,0,1,.463,2.12,2.159,2.159,0,0,1-.848,1.66,3.8,3.8,0,0,1-2.544.73,3.459,3.459,0,0,1-2.66-.88,3.356,3.356,0,0,1-.809-2.35,8.928,8.928,0,0,1,.732-3.51,8.727,8.727,0,0,1,2.351-3.16,12.268,12.268,0,0,1,4.279-2.31,20.225,20.225,0,0,1,6.437-.89,22.908,22.908,0,0,1,6.9.89,13.873,13.873,0,0,1,4.626,2.35,8.8,8.8,0,0,1,2.621,3.31,9.512,9.512,0,0,1,.809,3.86,10.458,10.458,0,0,1-1.349,5.08,20.675,20.675,0,0,1-3.584,4.71,37.513,37.513,0,0,1-5.05,4.2,64.752,64.752,0,0,1-5.743,3.58q-2.931,1.62-5.666,2.85t-4.818,2.01l0.154,0.15H325.6a34.839,34.839,0,0,0,4.664-.27,8.681,8.681,0,0,0,3.314-1.08,6.211,6.211,0,0,0,2.2-2.27,12.538,12.538,0,0,0,1.31-3.78h0.771v8.48h-30.6v-0.92A29.432,29.432,0,0,0,310.1,8801.41Z" transform="translate(-257.5 -8701.5)"/>
  <path id="POINT_" data-name="POINT " class="cls-2" d="M285.538,8736.71a5.1,5.1,0,0,1,.566-0.05q0.372-.03.83-0.03a8.758,8.758,0,0,1,1.985.2,2.831,2.831,0,0,1,1.348.68,2.922,2.922,0,0,1,.758,1.31,7.4,7.4,0,0,1,.241,2.05,4.409,4.409,0,0,1-1,3.16,3.653,3.653,0,0,1-2.78,1.05,8.213,8.213,0,0,1-.938-0.05,10.183,10.183,0,0,1-1.011-.14v-8.18Zm-5.078,16.79h7.749v-0.33h-2.671v-7.94c0.273,0.04.586,0.09,0.939,0.13a7.975,7.975,0,0,0,.866.06,10.56,10.56,0,0,0,2.539-.31,7.625,7.625,0,0,0,2.13-.89,4.851,4.851,0,0,0,1.468-1.42,3.467,3.467,0,0,0,.554-1.93,3.721,3.721,0,0,0-.482-1.88,4.475,4.475,0,0,0-1.335-1.44,6.63,6.63,0,0,0-2.022-.93,9.719,9.719,0,0,0-2.539-.32c-0.225,0-.445,0-0.662.01s-0.437.01-.662,0.01c-0.225.02-.449,0.03-0.674,0.04s-0.449.01-.674,0.01H280.46v0.34h2.671v16.46H280.46v0.33Zm19.494-11.8a8.762,8.762,0,0,1,.831-2.77,5.007,5.007,0,0,1,1.708-1.94,6.009,6.009,0,0,1,5.7,0,5.01,5.01,0,0,1,1.709,1.94,8.788,8.788,0,0,1,.831,2.77,23.277,23.277,0,0,1,.216,3.21,21.567,21.567,0,0,1-.289,3.78,7.653,7.653,0,0,1-.962,2.7,4.25,4.25,0,0,1-1.745,1.61,6.728,6.728,0,0,1-5.235,0,4.264,4.264,0,0,1-1.733-1.61,7.653,7.653,0,0,1-.962-2.7,21.567,21.567,0,0,1-.289-3.78A23.277,23.277,0,0,1,299.954,8741.7Zm-2.358,6.57a9.047,9.047,0,0,0,1.745,2.86,8.581,8.581,0,0,0,2.659,1.99,7.539,7.539,0,0,0,3.345.75,7.247,7.247,0,0,0,3.286-.77,9.076,9.076,0,0,0,2.659-2.03,9.549,9.549,0,0,0,1.781-2.86,8.722,8.722,0,0,0,.65-3.3,8.858,8.858,0,0,0-.71-3.56,9.3,9.3,0,0,0-1.889-2.84,9,9,0,0,0-2.684-1.89,7.333,7.333,0,0,0-3.093-.68,7.041,7.041,0,0,0-2.984.68,9.192,9.192,0,0,0-2.683,1.89,9.884,9.884,0,0,0-1.95,2.84,8.375,8.375,0,0,0-.758,3.56A9.229,9.229,0,0,0,297.6,8748.27Zm18.555,5.23h7.75v-0.33H321.23v-16.46H323.9v-0.34h-7.75v0.34h2.672v16.46h-2.672v0.33Zm9.049,0h5.7v-0.33h-2.671v-15.48h0.048l10.133,16.15H338.9v-17.13h2.671v-0.34h-5.7v0.34h2.672v12.78h-0.048l-8.135-13.12H325.2v0.34h2.672v16.46H325.2v0.33Zm21.228,0h7.749v-0.33h-2.671v-16.46h1.4a7.273,7.273,0,0,1,1.083.08,3.109,3.109,0,0,1,1.215.47,4.252,4.252,0,0,1,1.18,1.21,8.129,8.129,0,0,1,.974,2.3h0.265v-4.4H342.986v4.4h0.265a8.072,8.072,0,0,1,.974-2.3,4.239,4.239,0,0,1,1.18-1.21,3.109,3.109,0,0,1,1.215-.47,7.273,7.273,0,0,1,1.083-.08h1.4v16.46h-2.671v0.33Z" transform="translate(-257.5 -8701.5)"/>
</svg>
