<svg id="point01.svg" xmlns="http://www.w3.org/2000/svg" width="125" height="124.97" viewBox="0 0 125 124.97">
  <defs>
    <style>
      .cls-1 {
        fill: #f4c2c2;
      }

      .cls-2 {
        fill: #fff;
        fill-rule: evenodd;
      }
    </style>
  </defs>
  <circle id="楕円形_4_コピー" data-name="楕円形 4 コピー" class="cls-1" cx="62.5" cy="62.485" r="62.5"/>
  <path id="_1" data-name="1" class="cls-2" d="M311.228,4856.37v-1.08h18.656v1.08h-6.013v30.91h6.013v1.08H311.228v-1.08h6.013v-30.91h-6.013Z" transform="translate(-257.5 -4789.5)"/>
  <path id="POINT_" data-name="POINT " class="cls-2" d="M285.538,4824.7c0.128-.01.317-0.03,0.566-0.05s0.525-.02.83-0.02a8.808,8.808,0,0,1,1.985.19,2.678,2.678,0,0,1,2.106,2,7.318,7.318,0,0,1,.241,2.04,4.452,4.452,0,0,1-1,3.17,3.647,3.647,0,0,1-2.78,1.04c-0.273,0-.585-0.01-0.938-0.04a10.133,10.133,0,0,1-1.011-.15v-8.18Zm-5.078,16.79h7.749v-0.33h-2.671v-7.94c0.273,0.05.586,0.09,0.939,0.13a7.975,7.975,0,0,0,.866.06,10.081,10.081,0,0,0,2.539-.31,7.625,7.625,0,0,0,2.13-.89,4.851,4.851,0,0,0,1.468-1.42,3.443,3.443,0,0,0,.554-1.93,3.684,3.684,0,0,0-.482-1.87,4.506,4.506,0,0,0-1.335-1.45,6.389,6.389,0,0,0-2.022-.92,9.306,9.306,0,0,0-2.539-.33c-0.225,0-.445.01-0.662,0.01s-0.437.02-.662,0.02l-0.674.03c-0.225.01-.449,0.01-0.674,0.01H280.46v0.34h2.671v16.46H280.46v0.33Zm19.494-11.8a8.78,8.78,0,0,1,.831-2.76,4.937,4.937,0,0,1,1.708-1.94,6.009,6.009,0,0,1,5.7,0,4.94,4.94,0,0,1,1.709,1.94,8.807,8.807,0,0,1,.831,2.76,23.423,23.423,0,0,1,.216,3.22,21.526,21.526,0,0,1-.289,3.77,7.581,7.581,0,0,1-.962,2.7,4.25,4.25,0,0,1-1.745,1.61,6.728,6.728,0,0,1-5.235,0,4.264,4.264,0,0,1-1.733-1.61,7.581,7.581,0,0,1-.962-2.7,21.526,21.526,0,0,1-.289-3.77A23.423,23.423,0,0,1,299.954,4829.69Zm-2.358,6.57a9.047,9.047,0,0,0,1.745,2.86,8.581,8.581,0,0,0,2.659,1.99,7.539,7.539,0,0,0,3.345.75,7.247,7.247,0,0,0,3.286-.77,9.076,9.076,0,0,0,2.659-2.03,9.426,9.426,0,0,0,1.781-2.86,8.709,8.709,0,0,0,.65-3.29,8.906,8.906,0,0,0-.71-3.57,9.254,9.254,0,0,0-1.889-2.83,8.657,8.657,0,0,0-2.684-1.89,7.345,7.345,0,0,0-3.093-.69,7.056,7.056,0,0,0-2.984.69,8.831,8.831,0,0,0-2.683,1.89,9.834,9.834,0,0,0-1.95,2.83,8.421,8.421,0,0,0-.758,3.57A9.216,9.216,0,0,0,297.6,4836.26Zm18.555,5.23h7.75v-0.33H321.23V4824.7H323.9v-0.34h-7.75v0.34h2.672v16.46h-2.672v0.33Zm9.049,0h5.7v-0.33h-2.671v-15.47h0.048l10.133,16.14H338.9V4824.7h2.671v-0.34h-5.7v0.34h2.672v12.78h-0.048l-8.135-13.12H325.2v0.34h2.672v16.46H325.2v0.33Zm21.228,0h7.749v-0.33h-2.671V4824.7h1.4a7.389,7.389,0,0,1,1.083.09,3.083,3.083,0,0,1,1.215.46,4.3,4.3,0,0,1,1.18,1.22,7.881,7.881,0,0,1,.974,2.3h0.265v-4.41H342.986v4.41h0.265a7.827,7.827,0,0,1,.974-2.3,4.289,4.289,0,0,1,1.18-1.22,3.083,3.083,0,0,1,1.215-.46,7.389,7.389,0,0,1,1.083-.09h1.4v16.46h-2.671v0.33Z" transform="translate(-257.5 -4789.5)"/>
</svg>
